<svg xmlns="http://www.w3.org/2000/svg" version="1.1" xmlns:xlink="http://www.w3.org/1999/xlink" xmlns:svgjs="http://svgjs.dev/svgjs" width="1000" height="214" viewBox="0 0 1000 214"><g transform="matrix(1,0,0,1,-0.605755543281532,0.15862952220761883)"><svg viewBox="0 0 396 85" data-background-color="#ffffff" preserveAspectRatio="xMidYMid meet" height="214" width="1000" xmlns="http://www.w3.org/2000/svg" xmlns:xlink="http://www.w3.org/1999/xlink"><defs></defs><g id="tight-bounds" transform="matrix(1,0,0,1,0.24013031602487445,-0.06283251306950888)"><svg viewBox="0 0 395.52 85.12583956628283" height="85.12583956628283" width="395.52"><g><svg viewBox="0 0 395.52 85.12583956628283" height="85.12583956628283" width="395.52"><g><svg viewBox="0 0 395.52 85.12583956628283" height="85.12583956628283" width="395.52"><g><svg viewBox="0 0 395.52 85.12583956628283" height="85.12583956628283" width="395.52"><g><svg viewBox="0 0 395.52 85.12583956628283" height="85.12583956628283" width="395.52"><g transform="matrix(1,0,0,1,0,0)"><svg width="395.52" viewBox="0.606727123260498 -33.92490005493164 226.48226928710938 48.74470520019531" height="85.12583956628283" data-palette-color="#86efac"><path d="M23.453-4.335l-3.297-17.726c0.028-0.541 0.066-0.938 0.114-1.191 0.054-0.254 0.232-0.45 0.532-0.588v0l5.856-2.584c0.178-0.101 0.378-0.172 0.601-0.213v0c0.203-0.038 0.367 0.006 0.492 0.132 0.119 0.127 0.214 0.387 0.288 0.78v0c-0.021 0.397 0.008 0.992 0.088 1.784 0.08 0.792 0.193 1.656 0.339 2.592 0.14 0.937 0.288 1.876 0.443 2.816 0.161 0.94 0.306 1.757 0.435 2.452v0l0.242 1.298c0.183 0.983 0.371 2.05 0.564 3.201 0.201 1.156 0.399 2.326 0.592 3.511 0.201 1.19 0.392 2.365 0.575 3.524 0.181 1.153 0.348 2.237 0.503 3.253v0l0.616 4.076c0.002 0.081 0.008 0.151 0.018 0.21 0.012 0.066 0.024 0.131 0.037 0.197v0l0.066 0.354c0.05 0.269 0.095 0.491 0.134 0.666 0.041 0.182 0.074 0.346 0.101 0.49v0c0.029 0.157 0.042 0.301 0.039 0.43 0.004 0.128-0.033 0.26-0.109 0.397-0.07 0.135-0.174 0.283-0.314 0.445-0.147 0.156-0.344 0.356-0.59 0.598v0c-0.137 0.141-0.366 0.349-0.688 0.626-0.328 0.278-0.687 0.592-1.075 0.943-0.389 0.35-0.796 0.714-1.221 1.091-0.419 0.37-0.805 0.706-1.155 1.008-0.351 0.303-0.634 0.545-0.852 0.728-0.222 0.191-0.333 0.286-0.333 0.286v0l-14.113-14.849 1.581 14.027c0.004 0.128-0.001 0.268-0.013 0.419-0.014 0.145-0.098 0.273-0.254 0.383v0c-0.132 0.092-0.359 0.236-0.683 0.432-0.322 0.202-0.699 0.432-1.133 0.689-0.432 0.264-0.888 0.531-1.366 0.804-0.477 0.279-0.931 0.536-1.362 0.772-0.431 0.236-0.815 0.433-1.151 0.59-0.336 0.164-0.566 0.258-0.691 0.281v0c-0.243 0.045-0.455 0.017-0.636-0.085-0.18-0.095-0.301-0.307-0.362-0.635v0c-0.21-2.002-0.426-4.186-0.649-6.551-0.23-2.365-0.477-4.787-0.741-7.267-0.265-2.48-0.542-4.954-0.832-7.423-0.29-2.469-0.582-4.808-0.878-7.018v0c-0.012-0.066-0.15-0.257-0.412-0.575-0.262-0.317-0.554-0.663-0.874-1.037-0.327-0.373-0.623-0.725-0.888-1.056-0.266-0.337-0.408-0.551-0.425-0.643v0c-0.021-0.111 0.019-0.224 0.12-0.337 0.1-0.12 0.269-0.284 0.509-0.492v0l5.658-4.744c0.046-0.009 0.11-0.031 0.191-0.066 0.083-0.029 0.157-0.05 0.222-0.062v0c0.177-0.033 0.318-0.039 0.424-0.018 0.112 0.02 0.243 0.121 0.392 0.304v0zM56.366-14.662v0c-0.039 0.227-0.119 0.556-0.24 0.987-0.128 0.426-0.276 0.908-0.444 1.447-0.168 0.538-0.345 1.115-0.53 1.729-0.192 0.615-0.377 1.233-0.554 1.853v0c-0.072 0.231-0.141 0.404-0.207 0.519-0.066 0.116-0.182 0.208-0.349 0.276-0.173 0.069-0.414 0.126-0.724 0.171-0.309 0.052-0.741 0.119-1.295 0.202v0l-3.316 0.484 0.249 7.397 12.255-1.531 0.115 0.923c-0.029 0.037-0.138 0.266-0.328 0.686-0.189 0.42-0.412 0.922-0.668 1.504-0.25 0.582-0.516 1.17-0.798 1.763-0.282 0.593-0.521 1.07-0.718 1.43v0c-0.122 0.311-0.276 0.562-0.461 0.753-0.184 0.191-0.397 0.342-0.638 0.452-0.235 0.11-0.497 0.193-0.786 0.249-0.296 0.05-0.619 0.098-0.97 0.142v0c-1.429 0.178-2.924 0.335-4.486 0.469-1.563 0.128-3.121 0.239-4.675 0.332-1.56 0.101-3.081 0.183-4.564 0.248-1.49 0.065-2.871 0.113-4.144 0.145v0c-0.115-0.006-0.222-0.06-0.323-0.162-0.099-0.095-0.158-0.215-0.176-0.361v0c-0.066 0.008-0.04-0.133 0.078-0.422 0.118-0.29 0.286-0.667 0.504-1.132 0.218-0.464 0.454-0.991 0.71-1.58 0.256-0.59 0.501-1.181 0.735-1.775v0l-0.284-5.426c-0.054-0.914-0.088-1.595-0.104-2.043-0.016-0.455-0.026-0.695-0.03-0.722v0c-0.955 0.099-1.672 0.138-2.152 0.118-0.48-0.021-0.736-0.167-0.77-0.438v0c-0.016-0.126 0.07-0.378 0.258-0.758 0.188-0.38 0.419-0.815 0.693-1.306 0.28-0.499 0.575-1.019 0.884-1.562 0.316-0.537 0.59-1.031 0.822-1.483v0l-0.418-8.191-0.07 0.008c-0.349 0.057-0.665 0.11-0.948 0.159-0.284 0.042-0.545 0.078-0.782 0.108v0c-0.767 0.096-1.319 0.121-1.654 0.075-0.342-0.051-0.528-0.196-0.558-0.434v0c-0.014-0.112 0.053-0.353 0.203-0.72 0.148-0.375 0.336-0.808 0.563-1.3 0.234-0.493 0.479-1.007 0.734-1.543 0.255-0.542 0.481-1.044 0.679-1.506v0l1.134-2.621 9.982-1.246 11.662-2.324c0.02-0.002 0.063-0.005 0.13-0.006 0.074-0.002 0.153 0.011 0.237 0.041 0.084 0.03 0.169 0.09 0.255 0.18 0.084 0.084 0.138 0.215 0.16 0.393v0l-0.203 1.285c-0.069 0.365-0.158 0.752-0.268 1.162-0.11 0.41-0.235 0.832-0.376 1.267v0l-0.706 2.9c-0.079 0.285-0.178 0.509-0.299 0.672-0.128 0.157-0.423 0.274-0.883 0.352v0c-1.206 0.184-2.55 0.402-4.03 0.655-1.479 0.259-3.177 0.541-5.094 0.847v0c-0.038 0.233-0.049 0.416-0.032 0.549 0.017 0.139 0.036 0.399 0.057 0.779v0l0.018 1.116c0.031 0.514 0.05 1.069 0.057 1.666 0.014 0.596 0.025 1.33 0.033 2.203v0c0.81-0.135 1.599-0.267 2.369-0.397 0.764-0.122 1.465-0.237 2.104-0.344 0.632-0.106 1.182-0.195 1.65-0.266 0.468-0.072 0.798-0.12 0.99-0.144v0c0.126-0.016 0.274 0.013 0.444 0.086 0.17 0.073 0.272 0.245 0.306 0.516v0c0.017 0.132 0.012 0.281-0.015 0.445zM72.905-12.346v0c0.076 1.151 0.276 2.3 0.599 3.448 0.329 1.141 0.811 2.158 1.445 3.051 0.64 0.886 1.451 1.588 2.435 2.103 0.983 0.509 2.169 0.718 3.559 0.626v0c1.067-0.131 1.994-0.413 2.78-0.845 0.78-0.426 1.443-0.961 1.988-1.605 0.546-0.637 0.986-1.358 1.32-2.162 0.335-0.797 0.583-1.632 0.746-2.505 0.169-0.873 0.268-1.758 0.295-2.655 0.027-0.904 0.013-1.771-0.042-2.603v0c-0.075-1.138-0.298-2.229-0.668-3.273-0.377-1.044-0.895-1.955-1.554-2.733-0.666-0.778-1.468-1.383-2.405-1.815-0.938-0.439-2.005-0.619-3.203-0.54v0c-0.945 0.063-1.788 0.295-2.529 0.699-0.735 0.403-1.379 0.917-1.932 1.541-0.553 0.625-1.018 1.33-1.394 2.117-0.369 0.786-0.669 1.594-0.901 2.425-0.226 0.823-0.379 1.645-0.458 2.465-0.086 0.814-0.113 1.568-0.081 2.261zM78.752 4.965v0c-2.401 0.159-4.576-0.148-6.525-0.921-1.948-0.766-3.625-1.871-5.03-3.314-1.405-1.444-2.524-3.147-3.355-5.11-0.825-1.963-1.312-4.066-1.46-6.307v0c-0.167-2.514 0.036-4.856 0.607-7.026 0.572-2.163 1.442-4.108 2.61-5.835 1.175-1.728 2.61-3.213 4.304-4.454 1.695-1.248 3.578-2.215 5.651-2.9v0c0.193-0.013 0.332-0.176 0.419-0.489 0.087-0.306 0.157-0.648 0.212-1.026 0.056-0.371 0.13-0.713 0.223-1.027 0.087-0.306 0.236-0.467 0.449-0.481v0c3.121 0.114 5.948 0.475 8.48 1.082 2.533 0.614 4.712 1.585 6.537 2.914 1.825 1.322 3.272 3.054 4.343 5.194 1.064 2.141 1.701 4.795 1.911 7.961v0c0.135 2.036 0.012 3.968-0.368 5.797-0.374 1.822-0.959 3.521-1.757 5.098-0.798 1.57-1.786 2.991-2.964 4.265-1.178 1.281-2.508 2.388-3.99 3.321-1.482 0.933-3.089 1.678-4.822 2.234-1.74 0.556-3.565 0.898-5.475 1.024zM114.372-32.099v0c-0.011 0.38-0.038 0.857-0.081 1.431-0.05 0.567-0.099 1.167-0.149 1.801-0.049 0.634-0.109 1.277-0.178 1.931-0.069 0.647-0.129 1.244-0.178 1.791-0.057 0.547-0.1 1.017-0.132 1.411-0.031 0.394-0.046 0.647-0.045 0.76v0c-0.054 0.994-0.115 1.914-0.183 2.762-0.068 0.854-0.139 1.698-0.214 2.531-0.075 0.834-0.153 1.698-0.234 2.591-0.081 0.887-0.168 1.871-0.261 2.952-0.087 1.074-0.186 2.268-0.298 3.582-0.112 1.314-0.229 2.821-0.352 4.522v0l9.964-1.072c0.446-0.049 0.813-0.075 1.099-0.077v0c0.353-0.002 0.577 0.053 0.671 0.166 0.087 0.113 0.132 0.289 0.134 0.529v0c0 0.033-0.01 0.077-0.03 0.131-0.013 0.06-0.046 0.17-0.098 0.33-0.059 0.16-0.138 0.391-0.235 0.692-0.105 0.307-0.245 0.735-0.422 1.282v0l-0.52 1.594c-0.17 0.514-0.331 0.975-0.482 1.383-0.151 0.414-0.335 0.769-0.553 1.063-0.225 0.301-0.507 0.54-0.846 0.715-0.332 0.182-0.765 0.298-1.298 0.348v0c-0.333 0.035-0.79 0.065-1.369 0.089-0.573 0.03-1.236 0.058-1.99 0.082-0.76 0.031-1.576 0.066-2.449 0.106-0.873 0.039-1.766 0.084-2.679 0.136v0c-0.9 0.039-1.806 0.065-2.72 0.077-0.913 0.012-1.78 0.031-2.599 0.057-0.82 0.018-1.573 0.036-2.26 0.054-0.693 0.024-1.263 0.045-1.71 0.06v0c-0.42 0.003-0.72-0.026-0.9-0.084-0.187-0.066-0.281-0.172-0.282-0.318v0c-0.001-0.173 0.054-0.427 0.165-0.761 0.111-0.327 0.252-0.695 0.423-1.103 0.177-0.414 0.371-0.842 0.582-1.284 0.217-0.441 0.428-0.873 0.632-1.294v0l0.597-8.594c0.118-1.461 0.238-2.945 0.362-4.452 0.117-1.507 0.218-2.968 0.302-4.382v0l0.371-6.382c0.091-1.507 0.147-2.601 0.169-3.281 0.029-0.68 0.043-1.054 0.043-1.121v0c0.032-0.287 0.053-0.527 0.066-0.72 0.019-0.193 0.048-0.354 0.087-0.481 0.039-0.127 0.099-0.224 0.178-0.291 0.08-0.067 0.199-0.118 0.359-0.152v0l8.437-2.043c0.173-0.068 0.389-0.102 0.65-0.104v0c0.173-0.001 0.297 0.051 0.371 0.158 0.074 0.1 0.112 0.296 0.113 0.589v0c0 0.033-0.003 0.077-0.009 0.13-0.013 0.053-0.019 0.107-0.019 0.16zM123.98 0.656v0c0.233-0.403 0.472-0.858 0.716-1.367 0.252-0.515 0.489-1.071 0.711-1.668v0l0.726-1.557c-0.272-0.447-0.543-0.93-0.812-1.451-0.275-0.52-0.52-1.049-0.735-1.587-0.214-0.538-0.386-1.076-0.513-1.616-0.128-0.533-0.18-1.05-0.156-1.549v0c0.002-0.033 0.129-0.054 0.383-0.062 0.248-0.015 0.562-0.02 0.942-0.015 0.374-0.002 0.781 0.004 1.221 0.018 0.446 0.015 0.856 0.028 1.229 0.039 0.38 0.012 0.693 0.017 0.941 0.015 0.247 0.005 0.37 0.008 0.37 0.008v0c0.419-0.941 0.826-1.836 1.22-2.685 0.388-0.849 0.779-1.705 1.174-2.566 0.395-0.869 0.792-1.754 1.189-2.656 0.397-0.909 0.798-1.881 1.201-2.916v0c0.768-1.959 1.508-3.675 2.219-5.15 0.718-1.474 1.388-2.847 2.009-4.118v0c0.074-0.157 0.188-0.301 0.341-0.435 0.16-0.126 0.332-0.234 0.517-0.325 0.178-0.085 0.355-0.157 0.531-0.215 0.169-0.052 0.301-0.092 0.396-0.121v0c0.067-0.01 0.317-0.072 0.749-0.184 0.426-0.106 0.915-0.22 1.468-0.341 0.553-0.114 1.102-0.214 1.647-0.301 0.538-0.088 0.967-0.124 1.286-0.109v0l0.44 0.022c0.253 0.012 0.493 0.084 0.721 0.214 0.227 0.131 0.372 0.375 0.435 0.732v0c0.678 2.008 1.397 4.198 2.158 6.571 0.761 2.372 1.49 4.984 2.187 7.834v0c0.374 1.526 0.745 2.972 1.114 4.338 0.368 1.366 0.738 2.702 1.109 4.008 0.372 1.299 0.746 2.602 1.124 3.908 0.385 1.3 0.774 2.643 1.168 4.03v0c0.119 0.58 0.247 1.043 0.384 1.39 0.137 0.34 0.264 0.61 0.382 0.81 0.117 0.199 0.214 0.344 0.289 0.434 0.075 0.097 0.111 0.192 0.107 0.285v0c-0.004 0.093-0.159 0.183-0.463 0.269v0l-5.255 1.43c-0.393 0.128-0.793 0.256-1.2 0.383-0.406 0.121-0.789 0.229-1.147 0.325-0.358 0.096-0.669 0.175-0.932 0.236-0.27 0.06-0.461 0.088-0.575 0.082v0l-0.139-0.006c-0.226-0.011-0.386-0.089-0.48-0.234-0.087-0.138-0.144-0.274-0.17-0.408v0c-0.135-0.534-0.272-1.018-0.411-1.452-0.139-0.434-0.276-0.864-0.409-1.291-0.133-0.434-0.264-0.894-0.394-1.38-0.124-0.486-0.243-1.063-0.358-1.729v0c-0.029-0.082-0.116-0.156-0.26-0.223-0.137-0.06-0.305-0.111-0.503-0.154-0.198-0.043-0.41-0.073-0.636-0.091-0.226-0.018-0.436-0.031-0.629-0.04v0c-0.606-0.029-1.099-0.049-1.479-0.061-0.373-0.011-0.703-0.017-0.99-0.017-0.293-0.007-0.573-0.014-0.84-0.021-0.26-0.006-0.583-0.018-0.969-0.036v0c-0.466-0.022-0.942-0.049-1.428-0.079-0.492-0.03-0.938-0.065-1.337-0.104v0l-1.366-0.105c-0.468 1.132-0.936 2.191-1.404 3.176-0.468 0.992-0.968 2.013-1.498 3.062v0c-0.04 0.132-0.121 0.234-0.245 0.309-0.124 0.074-0.249 0.108-0.376 0.102v0c-0.093-0.004-0.149-0.017-0.168-0.038v0c-1.525-0.634-2.803-1.249-3.836-1.846-1.033-0.597-1.929-1.17-2.691-1.721zM141.217-20.172v0c-0.455 1.407-0.896 2.683-1.325 3.83-0.435 1.14-0.831 2.153-1.186 3.037-0.356 0.884-0.659 1.627-0.908 2.229-0.256 0.608-0.439 1.077-0.548 1.406v0l-0.011 0.219c-0.005 0.1-0.018 0.163-0.039 0.189v0l5.774 0.276c-0.142-0.794-0.294-1.596-0.456-2.404-0.161-0.809-0.318-1.66-0.468-2.555-0.151-0.888-0.295-1.843-0.433-2.864-0.145-1.015-0.278-2.136-0.4-3.363zM179.995-7.765l1.89-17.931c0.181-0.51 0.331-0.88 0.449-1.109 0.125-0.228 0.35-0.365 0.677-0.411v0l6.35-0.809c0.199-0.046 0.412-0.057 0.637-0.034v0c0.206 0.022 0.35 0.111 0.434 0.267 0.077 0.156 0.095 0.432 0.053 0.83v0c-0.133 0.375-0.275 0.953-0.424 1.736-0.149 0.782-0.287 1.642-0.413 2.581-0.132 0.938-0.258 1.88-0.378 2.825-0.113 0.947-0.207 1.771-0.281 2.475v0l-0.138 1.312c-0.105 0.994-0.228 2.071-0.371 3.229-0.136 1.165-0.281 2.344-0.433 3.534-0.146 1.198-0.298 2.379-0.453 3.542-0.155 1.157-0.304 2.244-0.445 3.262v0l-0.571 4.082c-0.022 0.078-0.036 0.147-0.042 0.207-0.007 0.066-0.014 0.133-0.021 0.199v0l-0.038 0.358c-0.029 0.272-0.049 0.498-0.061 0.677-0.013 0.186-0.027 0.352-0.042 0.499v0c-0.017 0.159-0.045 0.3-0.085 0.423-0.033 0.124-0.106 0.24-0.218 0.349-0.105 0.11-0.248 0.222-0.428 0.337-0.186 0.108-0.431 0.243-0.736 0.405v0c-0.171 0.096-0.45 0.231-0.837 0.405-0.394 0.173-0.827 0.372-1.3 0.597-0.473 0.225-0.967 0.458-1.481 0.698-0.507 0.235-0.972 0.447-1.395 0.638-0.422 0.19-0.763 0.342-1.023 0.455-0.267 0.119-0.401 0.179-0.401 0.179v0l-9.298-18.255-2.48 13.896c-0.033 0.124-0.077 0.257-0.133 0.398-0.054 0.135-0.172 0.233-0.352 0.295v0c-0.153 0.051-0.412 0.124-0.778 0.22-0.366 0.102-0.794 0.215-1.282 0.337-0.49 0.129-1.002 0.256-1.539 0.381-0.537 0.131-1.045 0.248-1.525 0.352-0.48 0.104-0.904 0.183-1.272 0.238-0.368 0.062-0.616 0.086-0.742 0.073v0c-0.245-0.026-0.441-0.113-0.585-0.263-0.146-0.143-0.201-0.38-0.167-0.712v0c0.369-1.979 0.784-4.134 1.245-6.465 0.454-2.332 0.907-4.724 1.36-7.177 0.453-2.453 0.892-4.903 1.318-7.352 0.426-2.449 0.812-4.775 1.158-6.977v0c0.007-0.066-0.07-0.289-0.232-0.668-0.161-0.379-0.342-0.794-0.542-1.244-0.207-0.451-0.391-0.872-0.551-1.264-0.159-0.399-0.234-0.645-0.224-0.738v0c0.012-0.113 0.082-0.209 0.212-0.289 0.13-0.087 0.339-0.196 0.627-0.326v0l6.776-2.936c0.046 0.005 0.114 0.002 0.202-0.009 0.088-0.004 0.165-0.003 0.23 0.004v0c0.179 0.019 0.316 0.053 0.412 0.104 0.102 0.051 0.198 0.185 0.289 0.402v0zM194.636 9.988l-4.316-0.744c-0.165-0.062-0.275-0.169-0.331-0.321-0.054-0.158-0.066-0.323-0.036-0.494v0c0.025-0.145 0.08-0.267 0.164-0.367v0l3.878-5.065c0.024-0.063 0.093-0.305 0.206-0.725 0.113-0.42 0.248-0.948 0.405-1.584 0.156-0.629 0.331-1.333 0.527-2.111 0.19-0.786 0.384-1.561 0.584-2.325 0.198-0.757 0.385-1.486 0.56-2.187 0.174-0.694 0.328-1.273 0.462-1.736v0c0.046-0.188 0.119-0.473 0.218-0.856 0.1-0.382 0.206-0.824 0.32-1.325 0.12-0.5 0.254-1.039 0.401-1.615 0.153-0.576 0.304-1.152 0.45-1.729v0l1.19-4.899c-0.444 0.025-0.904 0.047-1.381 0.067-0.478 0.026-0.941 0.041-1.388 0.044-0.447 0.004-0.87 0.002-1.267-0.005-0.397-0.014-0.74-0.046-1.029-0.097v0c-0.171-0.029-0.285-0.13-0.344-0.302-0.058-0.172-0.072-0.347-0.041-0.525v0c0.035-0.204 0.107-0.344 0.215-0.42v0l6.991-4.588c0.569-0.355 1.117-0.629 1.644-0.822 0.534-0.192 1.153-0.309 1.857-0.35 0.71-0.04 1.563-0.004 2.559 0.107 0.995 0.117 2.251 0.307 3.768 0.569v0c2.595 0.448 4.851 1.114 6.768 2 1.912 0.878 3.478 1.936 4.699 3.175v0c0.902 0.886 1.691 1.787 2.365 2.701 0.674 0.915 1.206 1.889 1.596 2.924 0.39 1.035 0.631 2.145 0.724 3.332 0.088 1.179 0.009 2.478-0.236 3.896v0c-0.467 2.707-1.286 5.041-2.456 7.005-1.164 1.964-2.578 3.611-4.242 4.94-1.665 1.336-3.521 2.39-5.568 3.16-2.047 0.77-4.184 1.311-6.409 1.624-2.227 0.319-4.492 0.433-6.797 0.339-2.306-0.087-4.542-0.317-6.71-0.691zM209.031-16.926v0l-0.78 2.818c-0.271 0.982-0.553 2.029-0.847 3.142-0.3 1.112-0.596 2.241-0.889 3.388-0.298 1.139-0.591 2.269-0.879 3.39-0.293 1.113-0.564 2.152-0.812 3.117-0.248 0.965-0.468 1.83-0.661 2.596-0.199 0.764-0.362 1.372-0.487 1.823v0l-0.191 0.698c1.912 0.33 3.581 0.3 5.008-0.09 1.427-0.39 2.645-1.056 3.653-1.998 1.008-0.942 1.822-2.108 2.44-3.496 0.625-1.387 1.082-2.919 1.371-4.594v0c0.207-1.202 0.24-2.391 0.097-3.565-0.136-1.173-0.432-2.321-0.888-3.441v0c-0.463-1.122-1.107-2.014-1.933-2.678-0.832-0.665-1.824-1.096-2.973-1.294v0c-0.191-0.033-0.405-0.023-0.644 0.031-0.238 0.047-0.433 0.098-0.585 0.153z" opacity="1" transform="matrix(1,0,0,1,0,0)" fill="#86efac" class="undefined-text-0" data-fill-palette-color="primary" id="text-0"></path></svg></g></svg></g></svg></g></svg></g><g></g></svg></g></svg><rect width="395.52" height="85.12583956628283" fill="none" stroke="none" visibility="hidden"></rect></g></svg></g></svg>